PathFileType	4	(X/Y/Z)	marker.trc
DataRate	CameraRate	NumFrames	NumMarkers	Units	OrigDataRate	OrigDataStartFrame	OrigNumFrames
128	128	27	6	m	128	1923	3845
Frame#	Time	US29-1	US29-2	US29-3	US30-1	US30-2	US30-3	
		X1	Y1	Z1	X2	Y2	Z2	X3	Y3	Z3	X4	Y4	Z4	X5	Y5	Z5	X6	Y6	Z6	

1922	15.023437	0.118368290364742	0.256851196289062	0.0843151211738586	0.138913735747337	0.279041022062302	0.0598583854734898	0.11261609941721	0.279122084379196	0.0878351479768753	0.0599424801766872	0.271464467048645	0.0305924490094185	0.0664986819028854	0.261210352182388	0.0530961602926254	0.0567427985370159	0.2812559902668	0.0540445819497108	
1923	15.03125	0.123739361763	0.259610861539841	0.0844826474785805	0.143981531262398	0.282037019729614	0.0599914081394672	0.117735855281353	0.281843304634094	0.0879739075899124	0.0654914453625679	0.273666590452194	0.0306935962289572	0.0723243281245232	0.26305365562439	0.053077757358551	0.0618170164525509	0.28342679142952	0.0542062222957611	
1924	15.039062	0.12886768579483	0.262459605932236	0.0845739990472794	0.14888821542263	0.28507986664772	0.060093130916357	0.122662775218487	0.284595638513565	0.0880489721894264	0.0704609677195549	0.275870054960251	0.0308729819953442	0.0774349048733711	0.265443831682205	0.0531477071344852	0.0667865350842476	0.285613238811493	0.0543631166219711	
1925	15.046875	0.13392847776413	0.265349864959717	0.0847291871905327	0.153755083680153	0.288156300783157	0.0602088421583176	0.127586483955383	0.287418365478516	0.0882256105542183	0.0753322467207909	0.278114318847656	0.03103431686759	0.0824043154716492	0.267890423536301	0.0533182546496391	0.0716044753789902	0.287835597991943	0.0545684173703194	
1926	15.054687	0.138991087675095	0.268209308385849	0.0848698243498802	0.15857045352459	0.291270405054092	0.0603285133838654	0.132351696491241	0.290236979722977	0.0883860141038895	0.079888328909874	0.280487805604935	0.0313025303184986	0.0869337692856789	0.271109580993652	0.0536728128790855	0.0763705372810364	0.290086507797241	0.0547418147325516	
1927	15.0625	0.143916308879852	0.271117359399796	0.0850653871893883	0.16320489346981	0.294354528188705	0.060468778014183	0.137111678719521	0.293069928884506	0.088522769510746	0.0846014767885208	0.282782703638077	0.031522411853075	0.0919660478830338	0.273570239543915	0.0538486018776894	0.0810170918703079	0.292374789714813	0.0549718774855137	
1928	15.070312	0.148753792047501	0.274018347263336	0.0852452963590622	0.167724475264549	0.297443568706512	0.0607564225792885	0.141759097576141	0.295943021774292	0.0887476205825806	0.0896385833621025	0.285077214241028	0.0316701754927635	0.0970493331551552	0.27510142326355	0.0538274422287941	0.0855653062462807	0.294615536928177	0.055220752954483	
1929	15.078125	0.153543427586555	0.276902496814728	0.0854472741484642	0.1722122579813	0.300495833158493	0.0609084218740463	0.146283134818077	0.298716574907303	0.0889190956950188	0.0940742120146751	0.287284255027771	0.0320367068052292	0.101784251630306	0.277160704135895	0.0541793927550316	0.0900644287467003	0.296843409538269	0.0555551908910275	
1930	15.085937	0.158219486474991	0.279716730117798	0.0856460183858871	0.176620051264763	0.303456962108612	0.0611279159784317	0.150645211338997	0.301596313714981	0.0892278999090195	0.0981385186314583	0.289609253406525	0.0325293242931366	-nan	-nan	-nan	0.0944686979055405	0.299152821302414	0.0559256449341774	
1931	15.09375	0.16276915371418	0.28253373503685	0.0859730094671249	0.180953457951546	0.306404083967209	0.0613396130502224	0.155066758394241	0.304353952407837	0.0895196422934532	0.102406166493893	0.291845500469208	0.0329568423330784	-nan	-nan	-nan	0.0988025888800621	0.301323652267456	0.0562926791608334	
1932	15.101562	0.16731983423233	0.285266548395157	0.0862940400838852	0.185140341520309	0.309241741895676	0.0616473183035851	0.159431844949722	0.307020038366318	0.0897864773869514	0.107345588505268	0.293922811746597	0.033164132386446	-nan	-nan	-nan	0.103069022297859	0.303364634513855	0.0567231029272079	
1933	15.109375	0.171717867255211	0.287945985794067	0.0866735726594925	0.189317271113396	0.312071174383163	0.0619352124631405	0.163620352745056	0.309685409069061	0.0901915207505226	0.111620262265205	0.295950382947922	0.033651165664196	-nan	-nan	-nan	0.107254698872566	0.305484294891357	0.0572548024356365	
1934	15.117187	0.176068693399429	0.290599346160889	0.0867919996380806	0.193331837654114	0.314782291650772	0.0623122081160545	0.167850762605667	0.312119603157043	0.0905089974403381	0.115055963397026	0.298007667064667	0.0344294533133507	-nan	-nan	-nan	0.111399307847023	0.307412087917328	0.0577574521303177	
1935	15.125	0.180302858352661	0.293190836906433	0.0872073099017143	0.197316318750381	0.317458182573318	0.0626199394464493	0.171932861208916	0.314609855413437	0.0909444317221642	0.119180291891098	0.299944251775742	0.0349975824356079	-nan	-nan	-nan	0.115438885986805	0.309377461671829	0.0583355203270912	
1936	15.132812	0.184457570314407	0.295680850744247	0.0876560881733894	0.201183974742889	0.320066601037979	0.0630487725138664	0.175881430506706	0.317072540521622	0.0913897305727005	0.123388007283211	0.302028983831406	0.0356285460293293	-nan	-nan	-nan	0.1192966401577	0.311262995004654	0.0589512586593628	
1937	15.140625	0.188433304429054	0.298084318637848	0.0882076919078827	0.204988598823547	0.322574943304062	0.0634582042694092	0.17975065112114	0.319424599409103	0.0919096767902374	0.127248644828796	0.303879588842392	0.0362145788967609	-nan	-nan	-nan	0.123216599225998	0.313120275735855	0.0595418997108936	
1938	15.148437	0.192252680659294	0.300461024045944	0.0888005271553993	0.208667919039726	0.325047999620438	0.0638908520340919	0.183563515543938	0.321793287992477	0.0923171266913414	0.131051048636436	0.305642127990723	0.0368853285908699	0.140164166688919	0.296609222888947	0.0594618991017342	0.126891657710075	0.31486102938652	0.0601342134177685	
1939	15.15625	0.195899486541748	0.30267721414566	0.0894217863678932	0.212581440806389	0.327334105968475	0.0656781569123268	0.187303021550179	0.324023395776749	0.0927279815077782	0.135133966803551	0.307115972042084	0.0373755395412445	0.144374370574951	0.297731429338455	0.0599113218486309	0.130630299448967	0.316578060388565	0.0607537142932415	
1940	15.164062	0.199271336197853	0.30489382147789	0.0900985896587372	0.216145277023315	0.329733729362488	0.0662508681416512	0.190515726804733	0.325746953487396	0.0933770909905434	0.138428196310997	0.308999359607697	0.0380623042583466	0.147653445601463	0.300238609313965	0.0606082901358604	0.13423727452755	0.318185567855835	0.0613040253520012	
1941	15.171875	0.202935844659805	0.307136297225952	0.0905508920550346	0.219204127788544	0.332227736711502	0.0652445629239082	0.194040715694427	0.328045725822449	0.0938961803913116	0.142002359032631	0.310683250427246	0.038585688918829	0.151299521327019	0.302018642425537	0.0612617805600166	0.137667298316956	0.319820880889893	0.0618557669222355	
1942	15.179687	0.206459254026413	0.309299945831299	0.090992383658886	0.222486317157745	0.334484755992889	0.0655681490898132	0.197343617677689	0.330161213874817	0.0943232253193855	0.145446136593819	0.312182039022446	0.0391050726175308	0.154833883047104	0.30357825756073	0.0617314130067825	0.141099691390991	0.321393817663193	0.0623670443892479	
1943	15.1875	0.209809675812721	0.311334490776062	0.091440238058567	0.225880905985832	0.336487919092178	0.067247599363327	0.201265633106232	0.331221491098404	0.0983604341745377	0.148747384548187	0.313691169023514	0.0395733639597893	0.158196657896042	0.305190056562424	0.0622055269777775	0.144300684332848	0.323003828525543	0.0627370253205299	
1944	15.195312	0.213000804185867	0.313290774822235	0.0918368175625801	0.228534832596779	0.33890825510025	0.0659714937210083	0.204166784882545	0.333227246999741	0.0983174741268158	0.151915460824966	0.315051794052124	0.0400538295507431	0.16261924803257	0.306390583515167	0.0619209706783295	0.147412687540054	0.324373424053192	0.0631366968154907	
1945	15.203125	0.216092631220818	0.315206736326218	0.0922097861766815	0.231783702969551	0.340634852647781	0.0681426376104355	0.207189634442329	0.334985166788101	0.0990232899785042	0.154944360256195	0.316393733024597	0.0404473394155502	0.165867105126381	0.307686179876328	0.0622944794595242	0.150412052869797	0.325690418481827	0.0635287910699844	
1946	15.210937	0.21904531121254	0.317020833492279	0.0925226733088493	0.234139680862427	0.342501163482666	0.0677212700247765	0.20922440290451	0.337553977966309	0.0961631610989571	0.15809041261673	0.316549718379974	0.0412025079131126	0.16876757144928	0.308903098106384	0.0628003180027008	0.153198197484016	0.326991051435471	0.0639622583985329	
1947	15.21875	0.221754536032677	0.318678647279739	0.0928689986467361	0.237111881375313	0.344304442405701	0.0688900277018547	0.212425649166107	0.33844730257988	0.09938994795084	0.160565555095673	0.318935334682465	0.0411624610424042	0.170239135622978	0.310803383588791	0.0638514906167984	0.155949920415878	0.328115820884705	0.0642394125461578	
1948	15.226562	0.224276632070541	0.320232570171356	0.0932644978165627	0.239486277103424	0.345952332019806	0.0693383365869522	0.214864611625671	0.339938670396805	0.0998649224638939	0.163185209035873	0.320123940706253	0.0414094738662243	0.172904193401337	0.312071144580841	0.0641202554106712	0.158388093113899	0.329315274953842	0.0645637363195419	
